<svg width="29" height="31" viewBox="0 0 29 31" fill="none" xmlns="http://www.w3.org/2000/svg">
<path d="M23.4236 15.4996C23.4236 21.2683 19.8321 26.3049 14.5003 29C9.16516 26.3058 5.57617 21.2692 5.57617 15.4996C5.57617 9.72993 9.16516 4.69422 14.4969 2C19.8346 4.69508 23.4236 9.72821 23.4236 15.4996Z" stroke="white" stroke-width="2" stroke-miterlimit="10"/>
<path d="M0 0C0 0 0 0 0 0" stroke="white" stroke-width="2" stroke-miterlimit="10"/>
<path d="M0 0C0 0 0 0 0 0" stroke="white" stroke-width="2" stroke-miterlimit="10"/>
<path d="M0 0C0 0 0 0 0 0" stroke="white" stroke-width="2" stroke-miterlimit="10"/>
<path d="M0 0C0 0 0 0 0 0" stroke="white" stroke-width="2" stroke-miterlimit="10"/>
<path d="M0 0C0 0 0 0 0 0" stroke="white" stroke-width="2" stroke-miterlimit="10"/>
<path d="M0 0C0 0 0 0 0 0" stroke="white" stroke-width="2" stroke-miterlimit="10"/>
<path d="M14.5 29C21.9558 29 28 22.9558 28 15.5C28 8.04416 21.9558 2 14.5 2C7.04416 2 1 8.04416 1 15.5C1 22.9558 7.04416 29 14.5 29Z" stroke="white" stroke-width="2" stroke-miterlimit="10"/>
</svg>
